<svg xmlns="http://www.w3.org/2000/svg" viewBox="0 0 84.338 82.076"><defs><style>.a{fill:none;stroke:#e98024;stroke-miterlimit:10;stroke-width:2px;}</style></defs><g transform="translate(0.088 0.087)"><g transform="translate(0.989 0.989)"><path class="a" d="M21.713,14.6,19.8,22.25c2.086.522,8.867,2.782,9.911-1.565C30.754,16.165,23.8,15.3,21.713,14.6Z" transform="translate(12.907 9.065)"/><path class="a" d="M20.26,21.2,18,29.72c2.608.7,10.606,3.13,11.823-1.565h0C31.04,23.113,22.695,21.9,20.26,21.2Z" transform="translate(11.577 13.941)"/><path class="a" d="M68.992,46.215l.522-2.086h0A34.748,34.748,0,1,0,2.051,27.437,34.539,34.539,0,0,0,27.437,69.514a35.183,35.183,0,0,0,21.212-1.391m2.434-37.209h0c-.522,3.3-2.434,5.042-4.868,5.564,3.477,1.739,5.216,4.521,3.477,9.215C47.606,51.6,42.737,52.126,36.3,50.909l-1.565,6.259L30.914,56.3l1.565-6.259a14.687,14.687,0,0,1-2.956-.869L27.958,55.43l-3.825-.869L25.7,48.3c-.869-.174-1.739-.522-2.782-.7l-5.042-1.391,1.913-4.347,2.782.7a1.406,1.406,0,0,0,1.739-.869l2.434-10.085.348.174a.607.607,0,0,1-.348-.174l1.739-7.129a2.007,2.007,0,0,0-1.739-2.26l-2.782-.7,1.043-4,5.216,1.391h0c.869.174,1.565.348,2.434.522l1.739-6.259,3.825.869-1.565,6.086c1.043.174,2.086.522,3.13.7l1.391-5.912L45,15.787l-1.565,6.259C48.3,23.785,51.779,26.219,51.083,30.914Z" transform="translate(-0.989 -0.989)"/></g><g transform="translate(48.475 46.215)"><path class="a" d="M28.3,43V27H63.074V61.774H28.3Z" transform="translate(-28.3 -27)"/><g transform="translate(4.695 10.085)"><path class="a" d="M31,38.712,36.738,32.8l5.912,5.912" transform="translate(-31 -32.8)"/><line class="a" y1="15.649" transform="translate(5.738 0.348)"/></g><g transform="translate(18.604 8.694)"><path class="a" d="M50.649,37.8l-5.912,5.912L39,37.8" transform="translate(-39 -27.715)"/><line class="a" y2="15.649" transform="translate(5.738)"/></g></g></g></svg>