<svg xmlns="http://www.w3.org/2000/svg" viewBox="0 0 82 82"><defs><style>.a{fill:none;stroke:#e98024;stroke-miterlimit:10;stroke-width:2px;}</style></defs><circle class="a" cx="34.783" cy="34.783" r="34.783" transform="translate(6.217 6.217)"/><g transform="translate(65.348 1)"><line class="a" y1="15.652" x2="15.652"/><path class="a" d="M41,1H51.435V11.435" transform="translate(-35.783 -1)"/></g><g transform="translate(1 1)"><line class="a" x1="15.652" y1="15.652"/><path class="a" d="M11.435,1H1V11.435" transform="translate(-1 -1)"/></g><g transform="translate(1 65.348)"><line class="a" x1="15.652" y2="15.652"/><path class="a" d="M11.435,51.435H1V41" transform="translate(-1 -35.783)"/></g><g transform="translate(65.348 65.348)"><line class="a" x2="15.652" y2="15.652"/><path class="a" d="M41,51.435H51.435V41" transform="translate(-35.783 -35.783)"/></g><path class="a" d="M22.435,39.652H12V24H22.435" transform="translate(8.13 17)"/><line class="a" x2="8.696" transform="translate(20.13 46.217)"/><line class="a" x2="8.696" transform="translate(20.13 51.435)"/><line class="a" x2="8.696" transform="translate(53.174 46.217)"/><line class="a" x2="8.696" transform="translate(53.174 51.435)"/><g transform="translate(27.437 21.87)"><path class="a" d="M26.112,17.3H33.59l8.348,13.043a13.489,13.489,0,0,1-7.13,18.609h0a14.386,14.386,0,0,1-10.087,0h0a13.617,13.617,0,0,1-7.13-18.609Z" transform="translate(-16.201 -9.822)"/><path class="a" d="M24.339,20.478,18.6,13H37.383l-5.739,7.478Z" transform="translate(-14.429 -13)"/><g transform="translate(9.911 15.652)"><line class="a" y2="3.478" transform="translate(3.652)"/><line class="a" y2="3.478" transform="translate(3.652 15.652)"/><path class="a" d="M29.2,26.087h0A2.009,2.009,0,0,0,27.117,24H24.161A2.3,2.3,0,0,0,21.9,26.261h0a2.652,2.652,0,0,0,1.217,2.087l4.87,2.783a2.714,2.714,0,0,1,1.391,2.261h0A2.561,2.561,0,0,1,26.77,36H24.161a2.009,2.009,0,0,1-2.087-2.087h0" transform="translate(-21.9 -20.522)"/></g></g><path class="a" d="M30,24H40.435V39.652H30" transform="translate(21.435 17)"/></svg>