<svg xmlns="http://www.w3.org/2000/svg" viewBox="0 0 70.015 81.5"><defs><style>.a{fill:#e98024;}.b{fill:none;stroke:#e98024;stroke-width:3px;}</style></defs><g transform="translate(-1171.691 -3115.74)"><g transform="translate(1183.521 3115.74)"><path class="a" d="M45.211,0H26.952A3.636,3.636,0,0,0,23.3,3.651V10.09H33.393a6.341,6.341,0,0,1,6.34,6.338v2.18l3.956,3.955a1.386,1.386,0,0,0,.964.406,1.6,1.6,0,0,0,.964-.355,1.458,1.458,0,0,0,.456-1.014V18.354a3.694,3.694,0,0,0,2.942-3.6V3.651A3.836,3.836,0,0,0,45.211,0Z" transform="translate(-11.476)"/><path class="a" d="M45.162,50.3H39.634v1.977a6.341,6.341,0,0,1-6.34,6.338H23.2v6.439A3.636,3.636,0,0,0,26.852,68.7H39.38l4.159,4.158a1.386,1.386,0,0,0,.964.406,1.6,1.6,0,0,0,.964-.355,1.458,1.458,0,0,0,.456-1.014V68.654a3.694,3.694,0,0,0,2.942-3.6v-11.1A3.679,3.679,0,0,0,45.162,50.3Z" transform="translate(-11.427 -24.797)"/><path class="a" d="M2.835,43.5v3.245a1.382,1.382,0,0,0,1.42,1.369,1.386,1.386,0,0,0,.964-.406l4.159-4.158H21.906A3.636,3.636,0,0,0,25.558,39.9V28.851A3.636,3.636,0,0,0,21.906,25.2H3.646A3.636,3.636,0,0,0-.006,28.851V39.9A3.51,3.51,0,0,0,2.835,43.5Zm5.63-10.952,2.739-.2,1.014-2.535a.585.585,0,0,1,1.065,0L14.3,32.349l2.739.2a.569.569,0,0,1,.3,1.014l-2.08,1.775.659,2.636a.562.562,0,0,1-.862.608l-1.834-1.116-.5-.3-2.333,1.42a.57.57,0,0,1-.862-.608l.659-2.636L8.11,33.566A.584.584,0,0,1,8.465,32.552Z" transform="translate(0.011 -12.423)"/></g><g transform="translate(1173.191 3156.096)"><g transform="translate(0 0)"><g transform="translate(51.003)"><path class="b" d="M37.739,11.375a5.652,5.652,0,0,0,5.639-5.738,5.639,5.639,0,0,0-11.278,0A5.652,5.652,0,0,0,37.739,11.375Z" transform="translate(-32.1 0)"/></g><g transform="translate(4.733)"><path class="b" d="M10.339,11.375a5.736,5.736,0,0,0,5.74-5.738,5.69,5.69,0,0,0-11.379,0A5.652,5.652,0,0,0,10.339,11.375Z" transform="translate(-4.7 0)"/></g><g transform="translate(46.371 12.432)"><path class="b" d="M40.49,12.5a23.657,23.657,0,0,0-5.337,0A8.354,8.354,0,0,0,27.5,20.554v.805a1.083,1.083,0,0,0,1.007,1.007h18.63a1.083,1.083,0,0,0,1.007-1.007v-.805A8.431,8.431,0,0,0,40.49,12.5Z" transform="translate(-27.5 -12.35)"/></g><g transform="translate(0 12.432)"><path class="b" d="M20.744,21.359v-.805c0-4.027-3.323-7.55-7.754-8.053a23.657,23.657,0,0,0-5.337,0A8.431,8.431,0,0,0,0,20.554v.805a1.083,1.083,0,0,0,1.007,1.007h18.73A1.083,1.083,0,0,0,20.744,21.359Z" transform="translate(0 -12.35)"/></g></g><g transform="translate(22.173 15.009)"><g transform="translate(0 13.643)"><path class="b" d="M28.256,35.916a25.957,25.957,0,0,0-5.857,0A9.079,9.079,0,0,0,14,44.753v.884a1.044,1.044,0,0,0,1.105,1.1H35.66a1.107,1.107,0,0,0,1.105-1.1v-.884A9.363,9.363,0,0,0,28.256,35.916Z" transform="translate(-14 -35.75)"/></g><path class="b" d="M18.6,29.586a6.272,6.272,0,0,0,6.189,6.3,6.242,6.242,0,1,0-6.189-6.3Z" transform="translate(-13.516 -23.4)"/></g></g></g></svg>