<svg xmlns="http://www.w3.org/2000/svg" viewBox="0 0 70.84 80"><defs><style>.a{fill:#e98024;}</style></defs><g transform="translate(0 61.898)"><g transform="translate(0 -61.898)"><g transform="translate(31.715 0)"><path class="a" d="M2.042,0A3.453,3.453,0,0,0-1.5,3.347,3.453,3.453,0,0,0,2.042,6.694,3.453,3.453,0,0,0,5.584,3.347,3.453,3.453,0,0,0,2.042,0" transform="translate(1.5 0)"/></g><g transform="translate(30.36 8.205)"><path class="a" d="M1.114,0H4.006A3.456,3.456,0,0,1,7.62,3.264V9.792a.691.691,0,0,1-.723.653H-1.777A.69.69,0,0,1-2.5,9.792V3.264A3.456,3.456,0,0,1,1.114,0" transform="translate(2.5)"/></g><g transform="translate(31.806 9.51)"><path class="a" d="M.669,0A2.074,2.074,0,0,0-1.5,1.958V7.834H5.729V1.958A2.074,2.074,0,0,0,3.56,0Z" transform="translate(1.5)"/></g><g transform="translate(41.924 11.298)"><path class="a" d="M.251,0a.774.774,0,0,1,.27.081l17.35,9.045a.618.618,0,0,1,.265.89.743.743,0,0,1-.626.326.79.79,0,0,1-.361-.087L-.2,1.213A.619.619,0,0,1-.466.32.753.753,0,0,1,.251,0" transform="translate(0.564 0.004)"/></g><g transform="translate(10.12 11.341)"><path class="a" d="M5.544,0a.748.748,0,0,1,.717.321.622.622,0,0,1-.266.893l-17.349,9.044a.774.774,0,0,1-.361.087.739.739,0,0,1-.626-.326.619.619,0,0,1,.265-.89L5.273.085A.779.779,0,0,1,5.544,0" transform="translate(12.438 0.004)"/></g><g transform="translate(1.488 16.077)"><path class="a" d="M1.114,0A3.456,3.456,0,0,1,4.729,3.264,3.456,3.456,0,0,1,1.114,6.528,3.456,3.456,0,0,1-2.5,3.264,3.456,3.456,0,0,1,1.114,0" transform="translate(2.5)"/></g><g transform="translate(62.208 16.077)"><path class="a" d="M1.114,0A3.456,3.456,0,0,1,4.729,3.264,3.456,3.456,0,0,1,1.114,6.528,3.456,3.456,0,0,1-2.5,3.264,3.456,3.456,0,0,1,1.114,0" transform="translate(2.5)"/></g><g transform="translate(2.934 17.382)"><path class="a" d="M.669,0A2.074,2.074,0,0,0-1.5,1.958,2.074,2.074,0,0,0,.669,3.917,2.074,2.074,0,0,0,2.837,1.958,2.074,2.074,0,0,0,.669,0" transform="translate(1.5)"/></g><g transform="translate(63.654 17.382)"><path class="a" d="M.669,0A2.074,2.074,0,0,0-1.5,1.958,2.074,2.074,0,0,0,.669,3.917,2.074,2.074,0,0,0,2.837,1.958,2.074,2.074,0,0,0,.669,0" transform="translate(1.5)"/></g><g transform="translate(41.396 19.661)"><path class="a" d="M.212,0A.785.785,0,0,1,.607.084.618.618,0,0,1,.873.975h0a.766.766,0,0,1-.986.24A.62.62,0,0,1-.381.327.734.734,0,0,1,.212,0" transform="translate(0.476 0.001)"/></g><g transform="translate(27.915 19.664)"><path class="a" d="M.218,0a.739.739,0,0,1,.64.329.62.62,0,0,1-.267.89A.769.769,0,0,1-.395.977.62.62,0,0,1-.126.086.8.8,0,0,1,.218,0" transform="translate(0.49 0)"/></g><g transform="translate(25.406 20.962)"><path class="a" d="M.218,0A.741.741,0,0,1,.861.329a.62.62,0,0,1-.267.89A.767.767,0,0,1-.392.979.62.62,0,0,1-.128.088a0,0,0,0,1,0,0A.8.8,0,0,1,.218,0" transform="translate(0.489 0)"/></g><g transform="translate(43.905 20.961)"><path class="a" d="M.212,0a.8.8,0,0,1,.4.084A.618.618,0,0,1,.875.975h0a.768.768,0,0,1-.986.243A.621.621,0,0,1-.38.328h0A.738.738,0,0,1,.212,0" transform="translate(0.475 0.001)"/></g><g transform="translate(22.897 22.263)"><path class="a" d="M.218,0a.739.739,0,0,1,.64.329.618.618,0,0,1-.265.89A.769.769,0,0,1-.393.979s0,0,0,0A.62.62,0,0,1-.126.086.8.8,0,0,1,.218,0" transform="translate(0.49 0)"/></g><g transform="translate(46.413 22.262)"><path class="a" d="M.211,0a.8.8,0,0,1,.4.084A.618.618,0,0,1,.875.975h0a.766.766,0,0,1-.986.24A.62.62,0,0,1-.379.327.738.738,0,0,1,.211,0" transform="translate(0.474 0.001)"/></g><g transform="translate(20.389 23.561)"><path class="a" d="M.219,0a.739.739,0,0,1,.64.329.62.62,0,0,1-.267.89A.767.767,0,0,1-.394.979.62.62,0,0,1-.128.087h0A.8.8,0,0,1,.219,0" transform="translate(0.491 0)"/></g><g transform="translate(48.919 23.56)"><path class="a" d="M.213,0A.8.8,0,0,1,.607.086a.62.62,0,0,1,.269.89.767.767,0,0,1-.986.244h0A.621.621,0,0,1-.382.328h0A.734.734,0,0,1,.213,0" transform="translate(0.477 0)"/></g><g transform="translate(0 23.872)"><path class="a" d="M1.114,0H4.006A3.456,3.456,0,0,1,7.62,3.264V9.792a.691.691,0,0,1-.723.653H-1.777A.691.691,0,0,1-2.5,9.792V3.264A3.456,3.456,0,0,1,1.114,0" transform="translate(2.5)"/></g><g transform="translate(60.72 23.872)"><path class="a" d="M1.114,0H4.006A3.456,3.456,0,0,1,7.62,3.264V9.792a.691.691,0,0,1-.723.653H-1.777A.691.691,0,0,1-2.5,9.792V3.264A3.456,3.456,0,0,1,1.114,0" transform="translate(2.5)"/></g><g transform="translate(51.431 24.858)"><path class="a" d="M.211,0A.8.8,0,0,1,.606.086a.62.62,0,0,1,.269.89.767.767,0,0,1-.986.244h0A.62.62,0,0,1-.378.329.735.735,0,0,1,.211,0" transform="translate(0.474 0)"/></g><g transform="translate(17.883 24.861)"><path class="a" d="M.218,0a.74.74,0,0,1,.64.326A.618.618,0,0,1,.6,1.218a0,0,0,0,0,0,0A.769.769,0,0,1-.393.979s0,0,0,0A.62.62,0,0,1-.126.086.8.8,0,0,1,.218,0" transform="translate(0.49 0)"/></g><g transform="translate(1.446 25.178)"><path class="a" d="M.669,0A2.074,2.074,0,0,0-1.5,1.958V7.834H5.729V1.958A2.074,2.074,0,0,0,3.56,0Z" transform="translate(1.5)"/></g><g transform="translate(62.166 25.178)"><path class="a" d="M.669,0A2.074,2.074,0,0,0-1.5,1.958V7.834H5.729V1.958A2.074,2.074,0,0,0,3.56,0Z" transform="translate(1.5)"/></g><g transform="translate(15.375 26.159)"><path class="a" d="M.219,0a.739.739,0,0,1,.64.329.62.62,0,0,1-.267.89A.769.769,0,0,1-.394.977.62.62,0,0,1-.128.086.774.774,0,0,1,.219,0" transform="translate(0.49 0)"/></g><g transform="translate(53.939 26.158)"><path class="a" d="M.211,0a.8.8,0,0,1,.4.084A.618.618,0,0,1,.875.975h0a.766.766,0,0,1-.986.24A.62.62,0,0,1-.379.327.738.738,0,0,1,.211,0" transform="translate(0.474 0.001)"/></g><g transform="translate(11.564 27.391)"><path class="a" d="M.251,0a.779.779,0,0,1,.27.084l15.9,8.291a.622.622,0,0,1,.265.893.743.743,0,0,1-.626.326.79.79,0,0,1-.361-.087L-.2,1.215A.619.619,0,0,1-.466.322.753.753,0,0,1,.251,0" transform="translate(0.564 0.004)"/></g><g transform="translate(31.848 27.827)"><path class="a" d="M1.114,0A3.456,3.456,0,0,1,4.729,3.264,3.456,3.456,0,0,1,1.114,6.528,3.456,3.456,0,0,1-2.5,3.264,3.456,3.456,0,0,1,1.114,0" transform="translate(2.5)"/></g><g transform="translate(33.294 29.133)"><path class="a" d="M.669,0A2.074,2.074,0,0,0-1.5,1.958,2.074,2.074,0,0,0,.669,3.917,2.074,2.074,0,0,0,2.837,1.958,2.073,2.073,0,0,0,.669,0" transform="translate(1.5)"/></g><g transform="translate(11.608 30.721)"><path class="a" d="M.223,0A.691.691,0,0,1,.946.653a.691.691,0,0,1-.723.653A.691.691,0,0,1-.5.653.691.691,0,0,1,.223,0" transform="translate(0.5)"/></g><g transform="translate(57.871 30.721)"><path class="a" d="M.223,0A.691.691,0,0,1,.946.653a.691.691,0,0,1-.723.653A.691.691,0,0,1-.5.653.691.691,0,0,1,.223,0" transform="translate(0.5)"/></g><g transform="translate(11.608 33.332)"><path class="a" d="M.223,0A.691.691,0,0,1,.946.653a.691.691,0,0,1-.723.653A.691.691,0,0,1-.5.653.691.691,0,0,1,.223,0" transform="translate(0.5)"/></g><g transform="translate(57.871 33.332)"><path class="a" d="M.223,0A.691.691,0,0,1,.946.653a.691.691,0,0,1-.723.653A.691.691,0,0,1-.5.653.691.691,0,0,1,.223,0" transform="translate(0.5)"/></g><g transform="translate(4.38 35.622)"><path class="a" d="M.223,0A.691.691,0,0,1,.946.653V9.792a.69.69,0,0,1-.723.653A.691.691,0,0,1-.5,9.792V.653A.691.691,0,0,1,.223,0" transform="translate(0.5)"/></g><g transform="translate(30.36 35.622)"><path class="a" d="M1.114,0H4.006A3.456,3.456,0,0,1,7.62,3.264V9.792a.691.691,0,0,1-.723.653H-1.777A.69.69,0,0,1-2.5,9.792V3.264A3.456,3.456,0,0,1,1.114,0" transform="translate(2.5)"/></g><g transform="translate(65.1 35.622)"><path class="a" d="M.223,0A.691.691,0,0,1,.946.653V9.792a.69.69,0,0,1-.723.653A.691.691,0,0,1-.5,9.792V.653A.691.691,0,0,1,.223,0" transform="translate(0.5)"/></g><g transform="translate(11.608 35.944)"><path class="a" d="M.223,0A.691.691,0,0,1,.946.653a.691.691,0,0,1-.723.653A.691.691,0,0,1-.5.653.691.691,0,0,1,.223,0" transform="translate(0.5)"/></g><g transform="translate(57.871 35.944)"><path class="a" d="M.223,0A.691.691,0,0,1,.946.653a.691.691,0,0,1-.723.653A.691.691,0,0,1-.5.653.691.691,0,0,1,.223,0" transform="translate(0.5)"/></g><g transform="translate(11.608 38.555)"><path class="a" d="M.223,0A.691.691,0,0,1,.946.653a.691.691,0,0,1-.723.653A.691.691,0,0,1-.5.653.691.691,0,0,1,.223,0" transform="translate(0.5)"/></g><g transform="translate(57.871 38.555)"><path class="a" d="M.223,0A.691.691,0,0,1,.946.653a.691.691,0,0,1-.723.653A.691.691,0,0,1-.5.653.691.691,0,0,1,.223,0" transform="translate(0.5)"/></g><g transform="translate(11.608 41.166)"><path class="a" d="M.223,0A.691.691,0,0,1,.946.653a.691.691,0,0,1-.723.653A.691.691,0,0,1-.5.653.691.691,0,0,1,.223,0" transform="translate(0.5)"/></g><g transform="translate(57.871 41.166)"><path class="a" d="M.223,0A.691.691,0,0,1,.946.653a.691.691,0,0,1-.723.653A.691.691,0,0,1-.5.653.691.691,0,0,1,.223,0" transform="translate(0.5)"/></g><g transform="translate(11.608 43.777)"><path class="a" d="M.223,0A.691.691,0,0,1,.946.653a.691.691,0,0,1-.723.653A.691.691,0,0,1-.5.653.691.691,0,0,1,.223,0" transform="translate(0.5)"/></g><g transform="translate(57.871 43.777)"><path class="a" d="M.223,0A.691.691,0,0,1,.946.653a.691.691,0,0,1-.723.653A.691.691,0,0,1-.5.653.691.691,0,0,1,.223,0" transform="translate(0.5)"/></g><g transform="translate(11.608 46.388)"><path class="a" d="M.223,0A.691.691,0,0,1,.946.653a.691.691,0,0,1-.723.653A.691.691,0,0,1-.5.653.691.691,0,0,1,.223,0" transform="translate(0.5)"/></g><g transform="translate(57.871 46.388)"><path class="a" d="M.223,0A.691.691,0,0,1,.946.653a.691.691,0,0,1-.723.653A.691.691,0,0,1-.5.653.691.691,0,0,1,.223,0" transform="translate(0.5)"/></g><g transform="translate(1.488 47.411)"><path class="a" d="M1.114,0A3.456,3.456,0,0,1,4.729,3.264,3.456,3.456,0,0,1,1.114,6.528,3.456,3.456,0,0,1-2.5,3.264,3.456,3.456,0,0,1,1.114,0" transform="translate(2.5)"/></g><g transform="translate(62.208 47.411)"><path class="a" d="M1.114,0A3.456,3.456,0,0,1,4.729,3.264,3.456,3.456,0,0,1,1.114,6.528,3.456,3.456,0,0,1-2.5,3.264,3.456,3.456,0,0,1,1.114,0" transform="translate(2.5)"/></g><g transform="translate(34.74 48.678)"><path class="a" d="M.223,0A.691.691,0,0,1,.946.653V9.7a.69.69,0,0,1-.723.653A.691.691,0,0,1-.5,9.7V.653A.691.691,0,0,1,.223,0" transform="translate(0.5)"/></g><g transform="translate(2.934 48.717)"><path class="a" d="M.669,0A2.074,2.074,0,0,0-1.5,1.958,2.074,2.074,0,0,0,.669,3.917,2.074,2.074,0,0,0,2.837,1.958,2.074,2.074,0,0,0,.669,0" transform="translate(1.5)"/></g><g transform="translate(63.654 48.717)"><path class="a" d="M.669,0A2.074,2.074,0,0,0-1.5,1.958,2.074,2.074,0,0,0,.669,3.917,2.074,2.074,0,0,0,2.837,1.958,2.074,2.074,0,0,0,.669,0" transform="translate(1.5)"/></g><g transform="translate(11.608 49)"><path class="a" d="M.223,0A.691.691,0,0,1,.946.653a.691.691,0,0,1-.723.653A.691.691,0,0,1-.5.653.691.691,0,0,1,.223,0" transform="translate(0.5)"/></g><g transform="translate(57.871 49)"><path class="a" d="M.223,0A.691.691,0,0,1,.946.653a.691.691,0,0,1-.723.653A.691.691,0,0,1-.5.653.691.691,0,0,1,.223,0" transform="translate(0.5)"/></g><g transform="translate(11.612 51.613)"><path class="a" d="M.212,0A.8.8,0,0,1,.607.086a.62.62,0,0,1,.266.89.768.768,0,0,1-.986.243A.62.62,0,0,1-.381.329.735.735,0,0,1,.212,0" transform="translate(0.476 0)"/></g><g transform="translate(57.877 51.613)"><path class="a" d="M.218,0A.741.741,0,0,1,.861.326.62.62,0,0,1,.6,1.218s0,0,0,0A.769.769,0,0,1-.392.977.62.62,0,0,1-.126.086.792.792,0,0,1,.218,0" transform="translate(0.488 0)"/></g><g transform="translate(55.366 52.911)"><path class="a" d="M.219,0a.739.739,0,0,1,.64.329.62.62,0,0,1-.265.89A.769.769,0,0,1-.394.981h0A.62.62,0,0,1-.128.087h0A.792.792,0,0,1,.219,0" transform="translate(0.491 0)"/></g><g transform="translate(14.122 52.913)"><path class="a" d="M.211,0A.788.788,0,0,1,.606.084a.621.621,0,0,1,.27.892,0,0,0,0,0,0,0,.767.767,0,0,1-.987.24h0A.62.62,0,0,1-.378.327.738.738,0,0,1,.211,0" transform="translate(0.474 0.001)"/></g><g transform="translate(16.628 54.211)"><path class="a" d="M.212,0A.8.8,0,0,1,.606.086a.62.62,0,0,1,.269.89.768.768,0,0,1-.986.243A.622.622,0,0,1-.38.328a0,0,0,0,1,0,0A.738.738,0,0,1,.212,0" transform="translate(0.475 0)"/></g><g transform="translate(52.859 54.214)"><path class="a" d="M.218,0A.741.741,0,0,1,.861.329a.62.62,0,0,1-.267.89A.769.769,0,0,1-.392.977.62.62,0,0,1-.126.086.792.792,0,0,1,.218,0" transform="translate(0.488 0)"/></g><g transform="translate(0 55.206)"><path class="a" d="M1.114,0H4.006A3.456,3.456,0,0,1,7.62,3.264V9.792a.691.691,0,0,1-.723.653H-1.777A.691.691,0,0,1-2.5,9.792V3.264A3.456,3.456,0,0,1,1.114,0" transform="translate(2.5)"/></g><g transform="translate(60.72 55.206)"><path class="a" d="M1.114,0H4.006A3.456,3.456,0,0,1,7.62,3.264V9.792a.691.691,0,0,1-.723.653H-1.777A.691.691,0,0,1-2.5,9.792V3.264A3.456,3.456,0,0,1,1.114,0" transform="translate(2.5)"/></g><g transform="translate(19.137 55.509)"><path class="a" d="M.211,0a.784.784,0,0,1,.4.086.62.62,0,0,1,.266.89.768.768,0,0,1-.986.243A.62.62,0,0,1-.379.329.735.735,0,0,1,.211,0" transform="translate(0.474 0.001)"/></g><g transform="translate(50.348 55.515)"><path class="a" d="M.219,0a.737.737,0,0,1,.64.326A.619.619,0,0,1,.6,1.218h0A.769.769,0,0,1-.393.979s0,0,0,0A.62.62,0,0,1-.128.085h0A.777.777,0,0,1,.219,0" transform="translate(0.491 0)"/></g><g transform="translate(1.446 56.512)"><path class="a" d="M.669,0A2.074,2.074,0,0,0-1.5,1.958V7.834H5.729V1.958A2.074,2.074,0,0,0,3.56,0Z" transform="translate(1.5)"/></g><g transform="translate(62.166 56.512)"><path class="a" d="M.669,0A2.074,2.074,0,0,0-1.5,1.958V7.834H5.729V1.958A2.074,2.074,0,0,0,3.56,0Z" transform="translate(1.5)"/></g><g transform="translate(21.643 56.809)"><path class="a" d="M.213,0A.788.788,0,0,1,.607.084a.62.62,0,0,1,.27.89v0a.767.767,0,0,1-.986.244h0A.622.622,0,0,1-.382.328a0,0,0,0,1,0,0A.737.737,0,0,1,.213,0" transform="translate(0.477 0.001)"/></g><g transform="translate(47.842 56.813)"><path class="a" d="M.218,0a.739.739,0,0,1,.64.329.62.62,0,0,1-.267.89A.769.769,0,0,1-.395.977.62.62,0,0,1-.126.086.792.792,0,0,1,.218,0" transform="translate(0.49 0)"/></g><g transform="translate(45.33 58.103)"><path class="a" d="M.219,0a.737.737,0,0,1,.64.326A.619.619,0,0,1,.6,1.218s0,0,0,0A.769.769,0,0,1-.393.979s0,0,0,0A.62.62,0,0,1-.128.085h0A.777.777,0,0,1,.219,0" transform="translate(0.491 0)"/></g><g transform="translate(24.154 58.11)"><path class="a" d="M.211,0A.787.787,0,0,1,.606.086a.62.62,0,0,1,.269.89.768.768,0,0,1-.986.243A.62.62,0,0,1-.379.329.735.735,0,0,1,.211,0" transform="translate(0.474 0.001)"/></g><g transform="translate(11.564 58.784)"><path class="a" d="M.251,0a.774.774,0,0,1,.27.081l15.9,8.293a.619.619,0,0,1,.265.89.743.743,0,0,1-.626.326A.79.79,0,0,1,15.7,9.5L-.2,1.213A.616.616,0,0,1-.466.322.753.753,0,0,1,.251,0" transform="translate(0.564 0.004)"/></g><g transform="translate(41.925 58.83)"><path class="a" d="M5.1,0a.748.748,0,0,1,.717.321.621.621,0,0,1-.266.893l-15.9,8.292a.774.774,0,0,1-.361.087.739.739,0,0,1-.626-.326.621.621,0,0,1,.265-.893L4.828.082A.747.747,0,0,1,5.1,0" transform="translate(11.438 0.004)"/></g><g transform="translate(26.662 59.41)"><path class="a" d="M.211,0a.782.782,0,0,1,.4.084A.619.619,0,0,1,.875.976h0a.77.77,0,0,1-.986.24A.62.62,0,0,1-.379.327.738.738,0,0,1,.211,0" transform="translate(0.474 0.001)"/></g><g transform="translate(42.827 59.411)"><path class="a" d="M.218,0A.741.741,0,0,1,.861.326.62.62,0,0,1,.6,1.218h0A.769.769,0,0,1-.392.977.62.62,0,0,1-.126.086.775.775,0,0,1,.218,0" transform="translate(0.488 0)"/></g><g transform="translate(40.319 60.707)"><path class="a" d="M.218,0A.741.741,0,0,1,.861.326.62.62,0,0,1,.6,1.218h0A.769.769,0,0,1-.392.977.62.62,0,0,1-.126.086.775.775,0,0,1,.218,0" transform="translate(0.488 0)"/></g><g transform="translate(29.17 60.708)"><path class="a" d="M.212,0A.787.787,0,0,1,.607.086a.62.62,0,0,1,.269.89.767.767,0,0,1-.986.244h0A.621.621,0,0,1-.379.328h0A.738.738,0,0,1,.212,0" transform="translate(0.475 0.001)"/></g><g transform="translate(31.981 61.76)"><path class="a" d="M1.114,0A3.456,3.456,0,0,1,4.729,3.264,3.456,3.456,0,0,1,1.114,6.528,3.456,3.456,0,0,1-2.5,3.264,3.456,3.456,0,0,1,1.114,0" transform="translate(2.5)"/></g><g transform="translate(33.427 63.065)"><path class="a" d="M.669,0A2.074,2.074,0,0,0-1.5,1.958,2.074,2.074,0,0,0,.669,3.917,2.074,2.074,0,0,0,2.837,1.958,2.074,2.074,0,0,0,.669,0" transform="translate(1.5)"/></g><g transform="translate(30.493 69.555)"><path class="a" d="M1.114,0H4.006A3.456,3.456,0,0,1,7.62,3.264V9.792a.691.691,0,0,1-.723.653H-1.777A.691.691,0,0,1-2.5,9.792V3.264A3.456,3.456,0,0,1,1.114,0" transform="translate(2.5)"/></g><g transform="translate(31.939 70.861)"><path class="a" d="M.669,0A2.074,2.074,0,0,0-1.5,1.958V7.834H5.729V1.958A2.074,2.074,0,0,0,3.56,0Z" transform="translate(1.5)"/></g></g></g></svg>