<svg xmlns="http://www.w3.org/2000/svg" viewBox="0 0 83 83">
  <defs>
    <style>
      .cls-1 {
        fill: none;
        stroke: #e98024;
        stroke-miterlimit: 10;
        stroke-width: 3px;
      }
    </style>
  </defs>
  <g id="Group_74" data-name="Group 74" transform="translate(0.5 0.5)">
    <g id="Group_70" data-name="Group 70" transform="translate(1 23.857)">
      <rect id="Rectangle_60" data-name="Rectangle 60" class="cls-1" width="57.143" height="57.143"/>
      <line id="Line_8" data-name="Line 8" class="cls-1" x2="20.952" transform="translate(5.714 17.143)"/>
      <line id="Line_9" data-name="Line 9" class="cls-1" x2="20.952" transform="translate(30.476 17.143)"/>
      <line id="Line_10" data-name="Line 10" class="cls-1" x2="20.952" transform="translate(5.714 24.762)"/>
      <line id="Line_11" data-name="Line 11" class="cls-1" x2="20.952" transform="translate(30.476 24.762)"/>
      <line id="Line_12" data-name="Line 12" class="cls-1" x2="20.952" transform="translate(5.714 32.381)"/>
      <line id="Line_13" data-name="Line 13" class="cls-1" x2="20.952" transform="translate(30.476 32.381)"/>
      <rect id="Rectangle_61" data-name="Rectangle 61" class="cls-1" width="41.905" height="9.524" transform="translate(7.619 40)"/>
      <line id="Line_14" data-name="Line 14" class="cls-1" x1="6.476" transform="translate(38.476 7.429)"/>
      <line id="Line_15" data-name="Line 15" class="cls-1" x2="5.333" y2="5.333" transform="translate(48 4.762)"/>
      <line id="Line_16" data-name="Line 16" class="cls-1" x1="5.333" y2="5.333" transform="translate(48 4.762)"/>
    </g>
    <g id="Group_71" data-name="Group 71" transform="translate(8.619 16.238)">
      <path id="Path_104" data-name="Path 104" class="cls-1" d="M5,16.619V9H62.143V66.143H54.524" transform="translate(-5 -9)"/>
      <line id="Line_17" data-name="Line 17" class="cls-1" x1="7.619" transform="translate(38.095 7.619)"/>
      <line id="Line_18" data-name="Line 18" class="cls-1" x2="5.333" y2="5.333" transform="translate(48 4.762)"/>
      <line id="Line_19" data-name="Line 19" class="cls-1" x1="5.333" y2="5.333" transform="translate(48 4.762)"/>
    </g>
    <g id="Group_72" data-name="Group 72" transform="translate(16.238 8.619)">
      <path id="Path_105" data-name="Path 105" class="cls-1" d="M9,12.619V5H66.143V62.143H58.524" transform="translate(-9 -5)"/>
      <line id="Line_20" data-name="Line 20" class="cls-1" x1="7.619" transform="translate(38.095 7.619)"/>
      <line id="Line_21" data-name="Line 21" class="cls-1" x2="5.333" y2="5.333" transform="translate(48 4.762)"/>
      <line id="Line_22" data-name="Line 22" class="cls-1" x1="5.333" y2="5.333" transform="translate(48 4.762)"/>
    </g>
    <g id="Group_73" data-name="Group 73" transform="translate(23.857 1)">
      <path id="Path_106" data-name="Path 106" class="cls-1" d="M13,8.619V1H70.143V58.143H62.524" transform="translate(-13 -1)"/>
      <line id="Line_23" data-name="Line 23" class="cls-1" x1="7.619" transform="translate(38.095 7.619)"/>
      <line id="Line_24" data-name="Line 24" class="cls-1" x2="5.333" y2="5.333" transform="translate(48 4.762)"/>
      <line id="Line_25" data-name="Line 25" class="cls-1" x1="5.333" y2="5.333" transform="translate(48 4.762)"/>
    </g>
  </g>
</svg>
