<svg xmlns="http://www.w3.org/2000/svg" viewBox="0 0 83 83"><defs><style>.a{fill:none;stroke:#e98024;stroke-miterlimit:10;stroke-width:2px;}</style></defs><g transform="translate(-938.5 -5690.5)"><g transform="translate(940 5692)"><rect class="a" width="80" height="60.87" transform="translate(0 0)"/><line class="a" x2="60.87" transform="translate(9.565 80)"/><path class="a" d="M43.826,55.13H16L21.217,36H38.609Z" transform="translate(10.087 24.87)"/><line class="a" x2="80" transform="translate(0 48.696)"/><path class="a" d="M7,34.087V8h3.478L15.7,23.652,20.913,8h3.478V34.087" transform="translate(3.435 4.174)"/><line class="a" x2="17.391" transform="translate(33.043 12.174)"/><line class="a" y2="27.826" transform="translate(41.739 10.435)"/><path class="a" d="M33,27.13h0a5.124,5.124,0,0,0,5.217,5.217H41.7a5.124,5.124,0,0,0,5.217-5.217V23.652A5.124,5.124,0,0,0,41.7,18.435H33V8H46.913" transform="translate(22.652 4.174)"/></g></g></svg>